<?xml version="1.0" encoding="utf-8"?>
<!-- Generator: Adobe Illustrator 28.0.0, SVG Export Plug-In . SVG Version: 6.00 Build 0)  -->
<svg version="1.1" id="Capa_1" xmlns="http://www.w3.org/2000/svg" xmlns:xlink="http://www.w3.org/1999/xlink" x="0px" y="0px"
	 viewBox="0 0 451.7 200.4" style="enable-background:new 0 0 451.7 200.4;" xml:space="preserve">
<style type="text/css">
	.st0{fill:#AF9656;}
	.st1{fill:#C8B273;}
	.st2{fill:#AD9864;}
</style>
<g>
	<g>
		<path class="st0" d="M397,14.7c0,0,1.1,15.2,15.2,15.1c0.8-7.2-11.4-14-11.4-14s3.3,3.3,4.3,7.6C402.8,22.8,399.9,20.7,397,14.7z"
			/>
		<path class="st0" d="M384.5,13.6c0,0,1.1,15.2,15.2,15.1c0.8-7.2-11.4-14-11.4-14s3.3,3.3,4.3,7.6
			C390.2,21.7,387.3,19.6,384.5,13.6z"/>
		<path class="st0" d="M442.7,23.8c-1.6,0-3.4-0.4-5.6-1.1c-2.1-0.7-4.6-1.8-7.4-3.1c-7-3.1-15.6-7-26.9-8.9
			c-15.7-2.7-27.4,0.5-27.5,0.6c-0.3,0.1-0.5-0.1-0.6-0.3c-0.1-0.3,0.1-0.5,0.3-0.6c0.1,0,12-3.3,28-0.6c11.4,2,20.5,6,27.1,9
			c2.8,1.3,5.2,2.3,7.3,3.1c8.2,2.8,9.6-0.8,10-2c0.4-1.1,0.1-2.3-0.7-3.2c-0.9-0.9-2.1-1.2-3.2-0.8c-1.2,0.4-1.4,1.4-1.3,2.1
			s0.7,1.6,1.7,1.5c0.6,0,0.9-0.2,1.1-0.5c0.3-0.4,0.1-1.1,0.1-1.1c-0.1-0.3,0.1-0.5,0.3-0.6c0.3-0.1,0.5,0.1,0.6,0.3
			c0,0,0.3,1.1-0.3,2c-0.4,0.5-1,0.8-1.9,0.9c-1.5,0.1-2.5-1.1-2.8-2.3c-0.2-1.2,0.3-2.7,1.9-3.3c1.5-0.5,3.1-0.1,4.3,1
			c1.1,1.1,1.5,2.8,0.9,4.3C447.5,22.6,445.6,23.8,442.7,23.8L442.7,23.8z"/>
		<path class="st0" d="M344.9,20.6c0,0,2.6-18.7,20-17.3c0.4,9-15.2,16.3-15.2,16.3s4.3-3.7,5.9-9C352.6,11.1,348.9,13.5,344.9,20.6
			L344.9,20.6z"/>
		<path class="st0" d="M360.9,14.1c0,0,8.6-16.8,24.5-9.8c-2.6,8.6-19.8,10.4-19.8,10.4s5.3-2.1,8.5-6.6
			C371.3,7.7,367,8.7,360.9,14.1L360.9,14.1z"/>
		<path class="st0" d="M281.2,13.6c-4.5,0-8.6-1.9-8.9-2c-0.2-0.1-0.4-0.4-0.2-0.7s0.4-0.4,0.7-0.2c0.1,0.1,9.9,4.6,15.6-0.6
			c1.6-1.4,1.5-3,1.3-3.8c-0.3-1.3-1.3-2.4-2.4-2.7s-2.2,0.3-2.6,0.9c-0.5,0.7-0.4,1.6,0.2,2.3c0.4,0.5,1,1,1.6,0.7
			c0.5-0.3,0.8-0.9,0.7-1.3c-0.2-0.7-0.8-0.6-0.9-0.6c-0.3,0.1-0.5-0.1-0.6-0.4s0.1-0.5,0.4-0.6c0.7-0.2,1.8,0.1,2.1,1.3
			c0.2,0.9-0.3,2-1.2,2.4c-0.9,0.5-2,0.1-2.9-0.9c-0.9-1.1-0.9-2.4-0.2-3.5c0.8-1.2,2.3-1.8,3.7-1.4c1.5,0.4,2.7,1.8,3.1,3.4
			c0.4,1.7-0.2,3.5-1.6,4.8C286.7,12.9,283.9,13.6,281.2,13.6L281.2,13.6z"/>
		<g>
			<path class="st0" d="M260.8,5.4c0,0,2.8,9.6,13.3,15.8s24.5-9.6,38-10.4c-6-0.6-15.6-0.1-24.4,4.6S265.1,11.4,260.8,5.4z"/>
			<g>
				<path class="st0" d="M233,13.8c0.2-0.9,0.6-1.7,1.4-2.2c0.7-0.6,1.7-0.8,2.6-0.7c0.9,0.1,1.8,0.2,2.6,0.8
					c0.8,0.5,1.3,1.3,1.8,2.1c0.8,1.6,1,3.6,0.5,5.4s-1.7,3.4-3.1,4.5c-1.5,1.1-3.3,1.8-5.2,1.8c-1.9,0.1-3.7-0.3-5.4-1.1
					c-1.7-0.8-3.2-2-4.3-3.6c-1.1-1.5-1.7-3.4-1.8-5.3s0.4-3.8,1.2-5.5s2-3.2,3.3-4.5c2.8-2.5,6.3-4.1,9.9-4.8
					c1.8-0.4,3.6-0.5,5.4-0.6c1.8,0,3.6,0.1,5.4,0.4c3.6,0.5,7.1,1.5,10.5,2.7s6.6,2.8,9.8,4.4c3.2,1.6,6.3,3.2,9.5,4.7
					c6.4,3.1,12.8,6,19.3,8.6s13.2,4.9,20.2,6.1c3.5,0.6,7,0.9,10.5,0.6c3.5-0.2,6.9-1.4,10.1-3c-3.1,1.8-6.5,3.1-10,3.5
					c-1.8,0.2-3.6,0.3-5.4,0.3s-3.6-0.2-5.3-0.4c-7.1-1-13.9-3.2-20.6-5.6c-6.7-2.5-13.1-5.4-19.6-8.4c-3.2-1.5-6.4-3.1-9.6-4.6
					c-3.2-1.6-6.3-3.1-9.6-4.3c-3.3-1.2-6.6-2.2-10-2.7C245.4,2.2,243.7,2,242,2s-3.4,0.2-5.1,0.5c-3.3,0.6-6.6,2-9.1,4.3
					c-2.5,2.2-4.3,5.3-4.3,8.7c0,1.6,0.5,3.3,1.4,4.6c0.9,1.4,2.2,2.5,3.7,3.2c3,1.5,6.8,1.6,9.6-0.4c1.4-0.9,2.5-2.3,3-3.9
					s0.4-3.4-0.3-5c-0.4-0.8-0.9-1.5-1.5-2c-0.7-0.5-1.6-0.7-2.4-0.8c-0.9-0.1-1.8,0.1-2.5,0.6S233.2,12.9,233,13.8L233,13.8z"/>
				<path class="st0" d="M240.4,14.5c0,2.1-1.7,3.8-3.8,3.8s-3.8-1.7-3.8-3.8s1.7-3.8,3.8-3.8S240.4,12.5,240.4,14.5z"/>
				<path class="st0" d="M335.3,25.4c0,0,38.9-21.9,75.7-11c22.8,6.4,29,18.3,40.7,19.9c-5,2.5-17.8-0.7-22.7-5.3
					c2.7,4.5,1.4,6.2,1.4,6.2s-5.8-3.4-9-9.8c0.9,3.6,1.7,7.6,1.7,7.6s-8.9-4.4-12-14.7c-0.6-0.9-13.3-4.5-30.4-4.1
					S342.9,22.8,335.3,25.4L335.3,25.4z"/>
				<path class="st0" d="M305.1,24.7c0,0,15.2,4.2,19.2-8.7c2.5,1.8,0,6.8,0,6.8c3.5-1.1,7.8-4.6,8.2-8.3c2.2,1.5,1.5,6.8,1.5,6.8
					c3.8-2.6,10-12.7,5.2-18.5c7.7,4.8,7.9,14,2.1,19.9C333,30.9,315.2,28.3,305.1,24.7L305.1,24.7z"/>
			</g>
		</g>
	</g>
	<g>
		<path class="st0" d="M170.5,13.6c-2.7,0-5.5-0.7-7.8-2.7c-1.4-1.3-2-3.1-1.6-4.8s1.6-3,3.1-3.4c1.4-0.4,2.9,0.2,3.7,1.4
			c0.7,1.1,0.6,2.4-0.2,3.5s-1.9,1.4-2.9,0.9c-0.9-0.5-1.4-1.5-1.2-2.4c0.3-1.2,1.4-1.4,2.1-1.3c0.3,0.1,0.4,0.3,0.4,0.6
			s-0.3,0.4-0.6,0.4c-0.2,0-0.8-0.1-0.9,0.6c-0.1,0.4,0.2,1,0.7,1.3c0.6,0.3,1.2-0.2,1.6-0.7c0.6-0.7,0.6-1.6,0.2-2.3
			c-0.4-0.7-1.4-1.3-2.6-0.9c-1.1,0.3-2.1,1.4-2.4,2.7c-0.2,0.8-0.3,2.4,1.3,3.8c5.7,5.1,15.5,0.6,15.6,0.6c0.2-0.1,0.6,0,0.7,0.2
			s0,0.6-0.2,0.7C179.1,11.7,175,13.6,170.5,13.6L170.5,13.6z"/>
		<path class="st0" d="M9,23.8c-2.9,0-4.8-1.2-5.7-3.7c-0.5-1.5-0.2-3.1,0.9-4.3s2.8-1.6,4.3-1c1.6,0.6,2.1,2.1,1.9,3.3
			s-1.3,2.4-2.8,2.3c-0.9,0-1.5-0.4-1.9-0.9c-0.6-0.8-0.3-1.9-0.3-2c0.1-0.3,0.4-0.4,0.6-0.3c0.3,0.1,0.4,0.4,0.3,0.6
			c0,0-0.2,0.7,0.1,1.1c0.2,0.3,0.6,0.4,1.1,0.5c1,0.1,1.6-0.8,1.7-1.5s-0.1-1.7-1.3-2.1c-1.1-0.4-2.3-0.1-3.2,0.8
			c-0.9,0.9-1.1,2.1-0.7,3.2c0.4,1.2,1.8,4.8,10,2c2.1-0.7,4.5-1.8,7.3-3.1c6.6-3,15.7-7,27.1-9c15.9-2.7,27.8,0.6,28,0.6
			c0.3,0.1,0.4,0.4,0.3,0.6c-0.1,0.3-0.3,0.4-0.6,0.3c-0.1,0-11.8-3.3-27.5-0.6c-11.3,1.9-19.9,5.8-26.9,8.9
			c-2.8,1.3-5.3,2.4-7.4,3.1C12.4,23.5,10.6,23.8,9,23.8L9,23.8z"/>
		<path class="st0" d="M106.8,20.6c0,0-2.6-18.7-20-17.3c-0.4,9,15.2,16.3,15.2,16.3s-4.3-3.7-5.9-9
			C99.1,11.1,102.8,13.5,106.8,20.6L106.8,20.6z"/>
		<path class="st0" d="M90.8,14.1c0,0-8.6-16.8-24.5-9.8C68.8,12.9,86,14.7,86,14.7s-5.3-2.1-8.5-6.6C80.4,7.7,84.7,8.7,90.8,14.1
			L90.8,14.1z"/>
		<path class="st0" d="M54.7,14.7c0,0-1.1,15.2-15.2,15.1c-0.8-7.2,11.4-14,11.4-14s-3.3,3.3-4.3,7.6C48.9,22.8,51.8,20.7,54.7,14.7
			z"/>
		<path class="st0" d="M67.2,13.6c0,0-1.1,15.2-15.2,15.1c-0.8-7.2,11.4-14,11.4-14s-3.3,3.3-4.3,7.6C61.5,21.7,64.4,19.6,67.2,13.6
			z"/>
		<g>
			<path class="st0" d="M190.9,5.4c0,0-2.8,9.6-13.3,15.8s-24.5-9.6-38-10.4c6-0.6,15.6-0.1,24.4,4.6S186.6,11.4,190.9,5.4
				L190.9,5.4z"/>
			<g>
				<path class="st0" d="M218.7,13.8c-0.2-0.9-0.7-1.6-1.4-2.2c-0.7-0.5-1.6-0.7-2.5-0.6c-0.9,0.1-1.7,0.3-2.4,0.8s-1.2,1.2-1.5,2
					c-0.7,1.6-0.8,3.4-0.3,5c0.5,1.6,1.6,3,3,3.9c2.8,2,6.6,1.9,9.6,0.4c1.5-0.8,2.8-1.9,3.7-3.2c0.9-1.4,1.4-3,1.4-4.6
					c0.1-3.3-1.8-6.5-4.3-8.7s-5.7-3.6-9.1-4.3c-1.7-0.3-3.4-0.5-5.1-0.5c-1.7,0-3.4,0.2-5.1,0.4c-3.4,0.5-6.8,1.5-10,2.7
					c-3.3,1.2-6.4,2.7-9.6,4.3c-3.2,1.6-6.4,3.1-9.6,4.6c-6.4,3-12.9,5.9-19.6,8.4c-6.7,2.5-13.5,4.6-20.6,5.6
					c-1.8,0.2-3.6,0.4-5.3,0.4c-1.8,0.1-3.6,0-5.3-0.3c-3.6-0.4-6.9-1.7-10-3.5c3.2,1.6,6.6,2.7,10.1,3c3.5,0.3,7,0,10.5-0.6
					c6.9-1.2,13.6-3.5,20.2-6.1c6.5-2.6,13-5.5,19.3-8.6c3.2-1.5,6.4-3.1,9.5-4.7s6.4-3.2,9.8-4.4c3.4-1.2,6.9-2.2,10.5-2.7
					c1.8-0.2,3.6-0.4,5.4-0.4c1.8,0,3.6,0.2,5.4,0.6c3.6,0.7,7.1,2.3,9.9,4.8c1.4,1.3,2.5,2.8,3.3,4.5s1.3,3.6,1.2,5.5
					s-0.7,3.8-1.8,5.3c-1.1,1.5-2.6,2.8-4.3,3.6c-1.7,0.8-3.6,1.2-5.4,1.1c-1.9-0.1-3.7-0.7-5.2-1.8c-1.5-1.1-2.7-2.7-3.1-4.5
					c-0.5-1.8-0.3-3.7,0.5-5.4c0.4-0.8,1-1.6,1.8-2.1s1.7-0.7,2.6-0.8c0.9,0,1.8,0.2,2.6,0.7C218,12.1,218.5,12.9,218.7,13.8
					L218.7,13.8z"/>
				<path class="st0" d="M211.2,14.5c0,2.1,1.7,3.8,3.8,3.8s3.8-1.7,3.8-3.8s-1.7-3.8-3.8-3.8S211.2,12.5,211.2,14.5z"/>
				<path class="st0" d="M116.4,25.4c0,0-38.9-21.9-75.7-11c-22.9,6.5-29,18.3-40.7,20c5,2.5,17.8-0.7,22.7-5.3
					c-2.7,4.5-1.4,6.2-1.4,6.2s5.8-3.4,9-9.8c-0.9,3.6-1.7,7.6-1.7,7.6s8.9-4.4,12-14.7c0.6-0.9,13.3-4.5,30.4-4.1
					C88.1,14.7,108.8,22.8,116.4,25.4z"/>
				<path class="st0" d="M146.6,24.7c0,0-15.2,4.2-19.2-8.7c-2.5,1.8,0,6.8,0,6.8c-3.5-1.1-7.8-4.6-8.2-8.3
					c-2.2,1.5-1.5,6.8-1.5,6.8c-3.8-2.6-10-12.7-5.2-18.5c-7.7,4.8-7.9,14-2.1,19.9C118.8,30.9,136.5,28.3,146.6,24.7L146.6,24.7z"
					/>
			</g>
		</g>
	</g>
</g>
<g>
	<g>
		<path class="st0" d="M54.7,185.7c0,0-1.1-15.2-15.2-15.1c-0.8,7.2,11.4,14,11.4,14s-3.3-3.3-4.3-7.6
			C48.9,177.6,51.8,179.7,54.7,185.7z"/>
		<path class="st0" d="M67.2,186.9c0,0-1.1-15.2-15.2-15.1c-0.8,7.2,11.4,14,11.4,14s-3.3-3.3-4.3-7.6
			C61.5,178.8,64.4,180.9,67.2,186.9L67.2,186.9z"/>
		<path class="st0" d="M9,176.6c1.6,0,3.4,0.4,5.6,1.1c2.1,0.7,4.6,1.8,7.4,3.1c6.9,3.1,15.6,7,26.9,8.9c15.7,2.7,27.4-0.5,27.5-0.6
			c0.3-0.1,0.5,0.1,0.6,0.3c0.1,0.3-0.1,0.5-0.3,0.6c-0.1,0-12,3.3-28,0.6c-11.4-2-20.5-6-27.1-9c-2.8-1.3-5.2-2.3-7.3-3.1
			c-8.2-2.8-9.6,0.8-10,2c-0.4,1.1-0.2,2.3,0.7,3.2s2.1,1.2,3.2,0.8c1.2-0.4,1.4-1.4,1.3-2.1s-0.7-1.6-1.7-1.5
			c-0.6,0-0.9,0.2-1.1,0.5c-0.3,0.4-0.1,1.1-0.1,1.1c0.1,0.3-0.1,0.5-0.3,0.6c-0.3,0.1-0.5-0.1-0.6-0.3c0-0.1-0.3-1.1,0.3-2
			c0.4-0.5,1-0.8,1.9-0.9c1.5-0.1,2.5,1.1,2.8,2.3s-0.3,2.7-1.9,3.3c-1.5,0.5-3.1,0.1-4.3-1c-1.1-1.1-1.5-2.8-0.9-4.3
			C4.2,177.8,6.1,176.6,9,176.6L9,176.6z"/>
		<path class="st0" d="M106.8,179.8c0,0-2.6,18.7-20,17.3c-0.4-9,15.2-16.3,15.2-16.3s-4.3,3.8-5.9,9
			C99.1,189.3,102.8,187,106.8,179.8L106.8,179.8z"/>
		<path class="st0" d="M90.8,186.3c0,0-8.6,16.8-24.5,9.8c2.6-8.6,19.8-10.4,19.8-10.4s-5.3,2.1-8.5,6.6
			C80.4,192.8,84.7,191.8,90.8,186.3L90.8,186.3z"/>
		<path class="st0" d="M170.5,186.9c4.5,0,8.6,1.9,8.9,2c0.2,0.1,0.4,0.4,0.2,0.7s-0.4,0.4-0.7,0.2c-0.1-0.1-9.9-4.6-15.6,0.6
			c-1.6,1.4-1.5,3-1.3,3.8c0.3,1.3,1.3,2.4,2.4,2.7c1.1,0.3,2.2-0.3,2.6-0.9c0.5-0.7,0.4-1.6-0.2-2.3c-0.4-0.5-1-1-1.6-0.6
			c-0.5,0.3-0.8,0.9-0.7,1.3c0.2,0.6,0.8,0.6,0.9,0.6c0.3-0.1,0.5,0.1,0.6,0.4c0.1,0.3-0.1,0.5-0.4,0.6c-0.7,0.2-1.8-0.1-2.1-1.3
			c-0.2-0.9,0.3-2,1.2-2.4c0.9-0.5,2-0.1,2.9,0.9c0.9,1.1,0.9,2.4,0.2,3.5c-0.8,1.2-2.3,1.8-3.7,1.4c-1.5-0.4-2.7-1.8-3.1-3.4
			c-0.4-1.7,0.2-3.5,1.6-4.8C165,187.5,167.8,186.9,170.5,186.9L170.5,186.9z"/>
		<g>
			<path class="st0" d="M190.9,195.1c0,0-2.8-9.6-13.3-15.8s-24.5,9.6-38,10.4c6,0.6,15.6,0.1,24.4-4.6
				C172.8,180.4,186.6,189.1,190.9,195.1L190.9,195.1z"/>
			<g>
				<path class="st0" d="M218.7,186.6c-0.2,0.9-0.6,1.7-1.4,2.2c-0.7,0.6-1.7,0.8-2.6,0.7c-0.9-0.1-1.8-0.2-2.6-0.8
					c-0.8-0.5-1.3-1.3-1.8-2.1c-0.8-1.6-1-3.6-0.5-5.4c0.5-1.8,1.7-3.4,3.1-4.5c1.5-1.1,3.3-1.8,5.2-1.8c1.9-0.1,3.7,0.3,5.4,1.1
					s3.2,2,4.3,3.6c1.1,1.5,1.7,3.4,1.8,5.3c0.1,1.9-0.4,3.8-1.2,5.5s-2,3.2-3.3,4.5c-2.8,2.5-6.3,4.1-9.9,4.8
					c-1.8,0.4-3.6,0.5-5.4,0.6c-1.8,0-3.6-0.1-5.4-0.4c-3.6-0.5-7.1-1.5-10.5-2.7s-6.6-2.9-9.8-4.4c-3.2-1.6-6.3-3.1-9.5-4.7
					c-6.4-3.1-12.8-6-19.3-8.6s-13.2-4.9-20.2-6.1c-3.4-0.6-7-0.9-10.5-0.6c-3.5,0.2-6.9,1.4-10.1,2.9c3.1-1.8,6.4-3.1,10-3.5
					c1.8-0.2,3.6-0.3,5.4-0.3s3.6,0.2,5.3,0.4c7.1,1,13.9,3.2,20.6,5.6c6.7,2.5,13.1,5.4,19.6,8.4c3.2,1.5,6.4,3.1,9.6,4.6
					c3.2,1.6,6.3,3.1,9.6,4.3s6.6,2.2,10,2.7c1.7,0.2,3.4,0.4,5.1,0.4c1.7,0,3.4-0.2,5.1-0.5c3.3-0.6,6.6-2,9.1-4.3
					c2.5-2.2,4.3-5.3,4.3-8.7c0-1.6-0.5-3.3-1.4-4.6c-0.9-1.4-2.2-2.5-3.7-3.2c-3-1.5-6.8-1.6-9.6,0.4c-1.4,0.9-2.5,2.3-3,3.9
					c-0.5,1.6-0.4,3.4,0.3,5c0.4,0.8,0.9,1.5,1.5,2c0.7,0.5,1.6,0.7,2.4,0.8c0.9,0.1,1.8-0.1,2.5-0.6S218.5,187.5,218.7,186.6
					L218.7,186.6z"/>
				<path class="st0" d="M211.2,185.9c0-2.1,1.7-3.8,3.8-3.8s3.8,1.7,3.8,3.8s-1.7,3.8-3.8,3.8S211.2,188,211.2,185.9z"/>
				<path class="st0" d="M116.4,175c0,0-38.9,21.9-75.7,11c-22.8-6.4-29-18.3-40.7-19.9c5-2.5,17.8,0.7,22.7,5.3
					c-2.7-4.5-1.4-6.2-1.4-6.2s5.8,3.4,9,9.8c-0.9-3.6-1.7-7.6-1.7-7.6s8.9,4.4,12,14.7c0.6,0.9,13.3,4.5,30.4,4.1
					S108.8,177.6,116.4,175L116.4,175z"/>
				<path class="st0" d="M146.6,175.7c0,0-15.2-4.2-19.2,8.8c-2.5-1.8,0-6.8,0-6.8c-3.5,1.1-7.8,4.6-8.2,8.3
					c-2.2-1.5-1.5-6.8-1.5-6.8c-3.8,2.6-10,12.7-5.2,18.5c-7.7-4.8-7.9-14-2.1-19.9C118.8,169.6,136.5,172.2,146.6,175.7
					L146.6,175.7z"/>
			</g>
		</g>
	</g>
	<g>
		<path class="st0" d="M281.2,186.9c2.7,0,5.5,0.7,7.8,2.7c1.4,1.3,2,3.1,1.6,4.8s-1.6,3-3.1,3.4c-1.4,0.4-2.9-0.1-3.7-1.4
			c-0.7-1.1-0.6-2.4,0.2-3.5c0.8-1.1,1.9-1.4,2.9-0.9c0.9,0.4,1.4,1.5,1.2,2.4c-0.3,1.2-1.5,1.4-2.1,1.3c-0.3-0.1-0.4-0.3-0.4-0.6
			s0.3-0.4,0.6-0.4c0.2,0,0.8,0.1,0.9-0.6c0.1-0.4-0.2-1-0.7-1.3c-0.6-0.3-1.2,0.2-1.6,0.6c-0.6,0.7-0.6,1.6-0.2,2.3
			c0.5,0.7,1.5,1.3,2.6,0.9c1.1-0.3,2.1-1.4,2.4-2.7c0.2-0.8,0.3-2.4-1.3-3.8c-5.7-5.1-15.5-0.6-15.6-0.6c-0.2,0.1-0.5,0-0.7-0.2
			c-0.1-0.2,0-0.6,0.2-0.7C272.6,188.8,276.7,186.9,281.2,186.9L281.2,186.9z"/>
		<path class="st0" d="M442.7,176.6c2.9,0,4.8,1.2,5.7,3.7c0.5,1.5,0.2,3.1-0.9,4.3s-2.8,1.6-4.3,1c-1.6-0.6-2.1-2.1-1.9-3.3
			s1.3-2.4,2.8-2.3c0.9,0.1,1.5,0.4,1.9,0.9c0.6,0.8,0.3,1.9,0.3,2c-0.1,0.3-0.4,0.4-0.6,0.3s-0.4-0.4-0.3-0.6c0,0,0.2-0.7-0.1-1.1
			c-0.2-0.3-0.6-0.4-1.1-0.5c-1-0.1-1.6,0.8-1.7,1.5s0.1,1.7,1.3,2.1c1.1,0.4,2.4,0.1,3.2-0.8c0.9-0.9,1.1-2.1,0.7-3.2
			c-0.4-1.2-1.8-4.8-10-2c-2.1,0.7-4.5,1.8-7.3,3.1c-6.6,3-15.7,7-27.1,9c-15.9,2.7-27.9-0.6-28-0.6c-0.3-0.1-0.4-0.4-0.3-0.6
			c0.1-0.3,0.4-0.4,0.6-0.3c0.1,0,11.8,3.3,27.5,0.6c11.3-1.9,19.9-5.8,26.9-8.9c2.8-1.3,5.3-2.4,7.4-3.1
			C439.3,177,441.1,176.6,442.7,176.6L442.7,176.6z"/>
		<path class="st0" d="M344.9,179.8c0,0,2.6,18.7,20,17.3c0.4-9-15.2-16.3-15.2-16.3s4.3,3.8,5.9,9
			C352.6,189.3,348.9,187,344.9,179.8L344.9,179.8z"/>
		<path class="st0" d="M360.9,186.3c0,0,8.6,16.8,24.5,9.8c-2.6-8.6-19.8-10.4-19.8-10.4s5.3,2.1,8.5,6.6
			C371.3,192.8,367,191.8,360.9,186.3L360.9,186.3z"/>
		<path class="st0" d="M397,185.7c0,0,1.1-15.2,15.2-15.1c0.8,7.2-11.4,14-11.4,14s3.3-3.3,4.3-7.6
			C402.8,177.6,399.9,179.7,397,185.7z"/>
		<path class="st0" d="M384.5,186.9c0,0,1.1-15.2,15.2-15.1c0.8,7.2-11.4,14-11.4,14s3.3-3.3,4.3-7.6
			C390.2,178.8,387.3,180.9,384.5,186.9L384.5,186.9z"/>
		<g>
			<path class="st0" d="M260.8,195.1c0,0,2.8-9.6,13.3-15.8s24.5,9.6,38,10.4c-6,0.6-15.6,0.1-24.4-4.6
				C278.9,180.4,265.1,189.1,260.8,195.1L260.8,195.1z"/>
			<g>
				<path class="st0" d="M233,186.6c0.2,0.9,0.7,1.6,1.4,2.1s1.6,0.7,2.5,0.6c0.9-0.1,1.7-0.3,2.4-0.8s1.2-1.2,1.5-2
					c0.7-1.6,0.8-3.4,0.3-5s-1.6-3-3-3.9c-2.8-1.9-6.6-1.9-9.6-0.4c-1.5,0.8-2.8,1.9-3.7,3.2c-0.9,1.4-1.4,3-1.4,4.6
					c-0.1,3.3,1.8,6.5,4.3,8.7s5.7,3.6,9.1,4.3c1.7,0.3,3.4,0.5,5.1,0.5c1.7,0,3.4-0.2,5.1-0.4c3.4-0.5,6.8-1.5,10-2.7
					c3.3-1.2,6.4-2.7,9.6-4.3s6.4-3.1,9.6-4.6c6.4-3,12.9-5.9,19.6-8.4c6.7-2.4,13.5-4.6,20.6-5.6c1.8-0.2,3.5-0.4,5.3-0.4
					c1.8-0.1,3.6,0,5.4,0.3c3.6,0.4,7,1.7,10,3.5c-3.2-1.6-6.6-2.7-10.1-2.9c-3.5-0.3-7,0-10.5,0.6c-6.9,1.2-13.6,3.5-20.2,6.1
					c-6.5,2.6-13,5.5-19.3,8.6c-3.2,1.5-6.4,3.1-9.5,4.7c-3.1,1.6-6.4,3.2-9.8,4.4s-6.9,2.2-10.5,2.7c-1.8,0.2-3.6,0.4-5.4,0.4
					c-1.8,0-3.6-0.2-5.4-0.6c-3.6-0.7-7.1-2.3-9.9-4.8c-1.4-1.3-2.5-2.8-3.3-4.5s-1.3-3.6-1.2-5.5s0.7-3.8,1.8-5.3
					c1.1-1.6,2.6-2.8,4.3-3.6s3.6-1.2,5.4-1.1c1.9,0.1,3.7,0.7,5.2,1.8s2.7,2.7,3.1,4.5c0.5,1.8,0.3,3.7-0.5,5.4
					c-0.4,0.8-1,1.6-1.8,2.1s-1.7,0.7-2.6,0.8c-0.9,0-1.8-0.2-2.6-0.7C233.7,188.3,233.2,187.5,233,186.6L233,186.6z"/>
				<path class="st0" d="M240.4,185.9c0-2.1-1.7-3.8-3.8-3.8s-3.8,1.7-3.8,3.8s1.7,3.8,3.8,3.8S240.4,188,240.4,185.9z"/>
				<path class="st0" d="M335.3,175c0,0,38.9,21.9,75.7,11c22.8-6.4,29-18.3,40.7-19.9c-5-2.5-17.8,0.7-22.7,5.3
					c2.7-4.5,1.4-6.2,1.4-6.2s-5.8,3.4-9,9.8c0.9-3.6,1.7-7.6,1.7-7.6s-8.9,4.4-12,14.7c-0.6,0.9-13.3,4.5-30.4,4.1
					S342.9,177.6,335.3,175L335.3,175z"/>
				<path class="st0" d="M305.1,175.7c0,0,15.2-4.2,19.2,8.8c2.5-1.8,0-6.8,0-6.8c3.5,1.1,7.8,4.6,8.2,8.3c2.2-1.5,1.5-6.8,1.5-6.8
					c3.8,2.6,10,12.7,5.2,18.5c7.7-4.8,7.9-14,2.1-19.9C333,169.6,315.2,172.2,305.1,175.7L305.1,175.7z"/>
			</g>
		</g>
	</g>
</g>
<g>
	<path class="st1" d="M47.1,93.4h9.4l5.6,18.5h0.1l5.6-18.5h9.1v1H73v24.1h3.9v1H64.6v-1h4V94h-0.1l-7.8,25.6h-0.9L52.1,94H52v24.6
		h4v1h-8.9v-1H51V94.4h-3.9V93.4L47.1,93.4z"/>
	<path class="st1" d="M85.2,118.6V94.4h-4.3v-1h13.2v1h-4.3v24.1h4.3v1H80.9v-1L85.2,118.6L85.2,118.6z"/>
	<path class="st1" d="M114,93.1l0.1,6.8h-0.9c-1.3-4.1-3.6-6.1-6.9-6.1c-1.8,0-3.2,0.5-4.2,1.5s-1.5,2.1-1.5,3.1s0.4,1.8,1.3,2.6
		s2.4,1.2,4.6,1.6s3.9,0.8,5.1,1.4s2.1,1.5,2.9,2.8s1.2,2.8,1.2,4.4c0,2.6-0.8,4.7-2.5,6.4s-3.7,2.6-6.2,2.6c-2,0-4-0.8-6-2.2
		l-1.8,1.6h-0.7v-7.3h0.8c0.8,2.3,1.8,4,3.2,5.2c1.4,1.2,2.9,1.7,4.5,1.7s3.1-0.5,4.5-1.6s2-2.4,2-4.1c0-1.4-0.5-2.5-1.4-3.5
		s-2.5-1.6-4.6-1.9s-3.7-0.8-4.9-1.2c-1.1-0.5-2.1-1.3-2.9-2.5s-1.2-2.5-1.2-3.9c0-2,0.7-3.7,2.1-5.3s3.3-2.3,5.7-2.3
		c2,0,3.9,0.6,5.6,1.9c0.5-0.4,0.9-1,1.2-1.6L114,93.1L114,93.1z"/>
</g>
<g>
	<path class="st2" d="M217.7,144.3c0.5,0.4,0.7,0.8,0.7,1.1c0,0.4-0.4,0.6-1.2,0.6c-1,0-1.8,0-2.5-0.1c-3.5-0.2-5.7-0.3-6.6-0.3
		c-1.7,0-3,0-4.1,0.1c-1,0.1-2.2,0.2-3.6,0.2c-0.9,0-1.4-0.2-1.4-0.7c0-0.2,0.2-0.5,0.5-0.9c0.6-0.6,1.1-1,1.4-1.3
		c0.5-0.5,0.8-1.1,0.8-1.5c0-0.3-0.1-0.7-0.4-1.1c-1.1-1.6-3.1-4.5-5.9-8.7c-1.4-2.1-2.9-4.2-4.2-6.4c-2.2-3.5-4.4-7-6.6-10.7
		c-1.6-2.8-3.3-5.8-5-9.1c-2,1.6-4,3.4-6.1,5.6c-2.4,2.6-4.5,5.2-6.4,8.1c-2.4,3.6-4.2,7.1-5.5,10.5c-1.3,3.4-1.9,6.7-1.9,9.9
		c0,1.1,0.4,2.1,1.2,3c1,0.8,1.7,1.4,2.1,1.8c0.4,0.4,0.6,0.7,0.6,1c0,0.4-0.3,0.6-1,0.6c-0.4,0-1.4,0-3-0.1s-2.9-0.2-3.8-0.2
		c-1.3,0-2.4,0-3.3,0.1s-1.9,0.2-3,0.2c-0.9,0-1.4-0.3-1.4-0.8c0-0.2,0.1-0.4,0.4-0.7c1-0.6,1.9-1.2,2.5-1.6c1.1-0.9,1.9-1.9,2.1-3
		c0.7-2.8,1.8-6.2,3.5-10.3c1.9-4.4,3.7-8.1,5.5-10.9c2.5-3.8,4.7-6.8,6.8-9.2c2.1-2.3,4.9-5.1,8.6-8.2c-1.1-2.1-2.3-4.7-3.7-7.8
		c-1.8-3.9-3.2-7.5-4.3-10.7c-0.9-2.6-1.7-5.1-2.5-7.7s-1.4-5.2-2.1-7.8c-0.2-1-1.1-2.2-2.7-3.5c-1.1-0.9-2.1-1.8-3.2-2.7
		c-0.2-0.3-0.3-0.5-0.3-0.7c0-0.5,0.4-0.7,1.3-0.7c0.2,0,1.2,0.1,2.9,0.2c1.7,0.1,3.3,0.2,4.8,0.2c1.6,0,3,0,4-0.1s2.2-0.2,3.5-0.3
		c1,0,1.5,0.2,1.5,0.7c0,0.2-0.1,0.5-0.3,0.7l-2.6,2.7c-0.6,0.8-0.8,1.5-0.7,2.2c0.7,3.4,2.2,8.2,4.5,14.4s4.5,11.3,6.6,15.3
		c6.4-5.2,9.8-7.9,10.1-8.1c4.5-3.8,7.9-7.2,10.2-10c3.1-3.8,4.7-7.1,4.7-9.9c0-1.7-0.5-3-1.5-3.8s-2.3-1.3-3.9-1.3
		c-0.5,0-1.1,0-1.7,0.1c-0.6,0.1-1.2,0.3-1.9,0.8c-0.7,0.5-1.2,1.1-1.8,2c-0.3,0.5-0.6,1.1-0.7,1.8c-0.1,0.7-0.3,1.3-0.3,1.6
		s-0.2,0.5-0.5,0.5c-0.2,0-0.4-0.1-0.6-0.3c-0.4-0.4-0.8-1.1-1.1-1.9s-0.4-1.7-0.4-2.5c0-0.3,0.1-0.6,0.1-0.7c0-2.2,0.9-4.1,2.8-5.8
		s4.1-2.5,6.5-2.5c3.4,0,6,1,8,3s3,4.5,3,7.5c0,4.1-1.9,8.4-5.7,13.2c-2.7,3.3-6.8,7.2-12.1,11.6c-7,5.7-10.6,8.7-10.8,8.9
		c2.5,5.1,5.5,10.7,9.1,16.6c2.9,4.8,6,9.5,9.3,14.2c2.4,3.4,4.7,6.5,6.8,9.3c0.7,0.8,1.5,1.6,2.6,2.3
		C215.5,142.9,216.6,143.6,217.7,144.3L217.7,144.3z"/>
	<path class="st2" d="M289.8,71.4c0,3.9-1,8.3-3,13.2c-1.5,3.7-3.9,8.6-7.3,14.6c-3.1,5.3-6.1,10.5-9.2,15.8c-3,5.3-6,10.7-8.8,16.4
		c-2.1,4.2-4,8.1-5.6,11.7c-1.6,3.6-2.6,5.6-2.7,5.9c-0.2,0.3-0.4,0.5-0.6,0.5c-0.2,0-0.5-0.2-0.7-0.6c-0.9-1.6-2.6-5.2-4.8-10.7
		c-2.4-5.8-4.7-11.8-6.9-17.9c-2.7-7.4-4.8-13.7-6.3-18.8c-1.3-4.3-2.5-9-3.8-14.2c-1-4.3-2-8.7-2.9-13.1c-0.6-3-1.1-5.8-1.6-8.5
		c-0.2-0.9-1.1-2-2.6-3.1c-1.2-0.8-1.9-1.3-2-1.5c-0.3-0.3-0.4-0.6-0.4-0.9c0-0.5,0.4-0.7,1.3-0.7c0.2,0,1.2,0.1,3,0.2
		c1.7,0.1,3.3,0.2,4.8,0.2c1.8,0,3.2,0,4.3-0.1s2.2-0.2,3.6-0.3c0.7,0,1.1,0.2,1.1,0.7c0,0.3-0.1,0.5-0.3,0.7
		c-1.1,0.9-1.9,1.6-2.5,2.1c-1.1,1-1.6,1.9-1.5,2.8c0.4,3.7,1.2,8.4,2.5,13.9c1.1,4.9,2.7,10.8,4.7,17.5c2.1,7.4,4.4,14.5,6.9,21.2
		c2.4,6.8,4.7,12.2,6.7,16.3c1.1-2.9,2.4-6,4-9.3c1.8-3.8,3.5-7.3,5.4-10.7c2.8-5.1,5.6-10.2,8.4-15.2c3-5.7,5.2-10.5,6.6-14.6
		c1.8-5.1,2.8-9.8,2.8-14.1c0-4.6-0.8-8.4-2.5-11.2c-2.1-3.5-5.4-5.3-9.8-5.3c-2.4,0-4.5,0.6-6.1,1.8c-1.7,1.2-2.5,2.9-2.5,5
		c0,1.3,0.4,2.3,1,3.2c0.7,0.9,1.7,1.3,3,1.3c0.3,0,0.5-0.1,0.7-0.1c1-0.1,1.8-0.5,2.3-1.2c0.4-0.5,0.7-1,0.8-1.7s0.3-0.9,0.5-0.9
		s0.4,0.1,0.6,0.4c0.7,0.8,1,1.9,1,3.1c0,1.6-0.6,3-1.9,4.2s-2.7,1.7-4.4,1.7c-2.3,0-4.1-0.8-5.5-2.6c-1.4-1.7-2.1-3.9-2.1-6.6
		c0-3.3,1.5-6,4.5-8.1s6.5-3.1,10.7-3.1c5.1,0,9.3,2,12.6,6.2C288.3,61.3,289.9,66,289.8,71.4L289.8,71.4z"/>
</g>
<g>
	<path class="st1" d="M331.6,111.4h-8.3l-2.7,7.2h4.8v1H316v-1h3.6l9.5-25.7h0.6l9.1,25.7h3.5v1H330v-1h4.2L331.6,111.4L331.6,111.4
		z M323.7,110.4h7.6l-3.7-10.5h-0.1L323.7,110.4z"/>
	<path class="st1" d="M368,94.4v25.7h-0.8L350,94.3h-0.1v24.3h4.4v1H345v-1h3.9V94.4h-4.1v-1h10l12.2,18.3h0.1V94.4h-4.3v-1h9.3v1
		H368L368,94.4z M363.7,85.5h0.8c0,1.4-0.4,2.5-1.2,3.2c-0.8,0.7-1.6,1.1-2.5,1.1s-2-0.3-3.3-0.9s-2.2-0.9-2.7-0.9
		c-1,0-1.6,0.6-1.8,1.7h-0.8c0-1.5,0.4-2.6,1.1-3.3s1.6-1.1,2.6-1.1c0.9,0,2,0.3,3.2,0.8s2.2,0.8,2.7,0.8
		C362.8,87.2,363.4,86.6,363.7,85.5L363.7,85.5z"/>
	<path class="st1" d="M387.6,120.2c-3.4,0-6.2-1.4-8.6-4.2c-2.4-2.8-3.5-5.9-3.5-9.1c0-3.9,1.2-7.2,3.7-9.9s5.4-4.1,8.6-4.1
		c3.1,0,5.8,1.4,8.3,4.2s3.7,5.9,3.7,9.5s-1.2,6.8-3.7,9.6S390.8,120.2,387.6,120.2L387.6,120.2z M387.7,93.8c-1.4,0-2.7,0.3-3.9,1
		c-1.1,0.7-1.9,1.8-2.3,3.4s-0.6,4.5-0.6,8.5c0,2.8,0.1,5,0.4,6.7s0.8,3,1.8,4.1s2.5,1.6,4.5,1.6c1.2,0,2.5-0.3,3.8-1
		c1.2-0.7,2.1-2,2.5-3.9s0.6-4.9,0.6-8.9c0-3.7-0.2-6.2-0.7-7.6s-1.2-2.4-2.3-3S389.1,93.8,387.7,93.8L387.7,93.8z"/>
	<path class="st1" d="M419.7,93.1l0.1,6.8h-0.9c-1.3-4.1-3.6-6.1-6.9-6.1c-1.8,0-3.2,0.5-4.2,1.5s-1.5,2.1-1.5,3.1s0.4,1.8,1.3,2.6
		s2.4,1.2,4.6,1.6s3.9,0.8,5.1,1.4s2.1,1.5,2.9,2.8s1.2,2.8,1.2,4.4c0,2.6-0.8,4.7-2.5,6.4s-3.7,2.6-6.2,2.6c-2,0-4-0.8-6-2.2
		l-1.8,1.6h-0.7v-7.3h0.8c0.8,2.3,1.8,4,3.2,5.2s2.9,1.7,4.5,1.7s3.1-0.5,4.5-1.6s2-2.4,2-4.1c0-1.4-0.5-2.5-1.4-3.5
		s-2.5-1.6-4.6-1.9s-3.7-0.8-4.9-1.2c-1.1-0.5-2.1-1.3-2.9-2.5s-1.2-2.5-1.2-3.9c0-2,0.7-3.7,2.1-5.3s3.3-2.3,5.7-2.3
		c2,0,3.9,0.6,5.6,1.9c0.5-0.4,0.9-1,1.2-1.6L419.7,93.1L419.7,93.1z"/>
</g>
</svg>
