<?xml version="1.0" encoding="utf-8"?>
<!-- Generator: Adobe Illustrator 28.0.0, SVG Export Plug-In . SVG Version: 6.00 Build 0)  -->
<svg version="1.1" id="Capa_1" xmlns="http://www.w3.org/2000/svg" xmlns:xlink="http://www.w3.org/1999/xlink" x="0px" y="0px"
	 viewBox="0 0 383.1 380.3" style="enable-background:new 0 0 383.1 380.3;" xml:space="preserve">
<style type="text/css">
	.st0{fill:#C8B273;}
	.st1{fill:#FFFFFF;}
</style>
<circle class="st0" cx="191.1" cy="189.4" r="186.9"/>
<g>
	<path class="st1" d="M191.2,306.1c-24,0-48,0-72,0.1c-2.7,0-3.6-0.5-3.5-3.4c0.1-26.5,0.1-53,0-79.5c0-2.5,0.8-4.1,2.9-5.4
		c12.8-7.6,25.6-15.3,38.4-22.9c10.5-6.3,21-12.5,31.4-19c2.4-1.5,4.3-1.4,6.6-0.1c23.3,14.2,46.5,28.3,69.8,42.4
		c1.8,1.1,2.6,2.6,2.6,4.6c0,26.7,0,53.4,0,80.1c0,2.8-1.4,3-3.5,3C239.7,306.1,215.4,306.1,191.2,306.1z M208.5,280.1
		c-0.5-5.2,1.1-11.8-0.7-18.1c-2.2-7.8-8.3-13.8-20-12.4c-6.9,0.8-13.6,8.4-13.7,16c-0.1,10.5,0,21.1-0.1,31.6
		c0,2.1,0.7,2.6,2.7,2.6c9.7-0.1,19.4-0.1,29.1,0c2.3,0,2.8-0.8,2.7-2.9C208.4,291.7,208.5,286.5,208.5,280.1z M251.1,274.2
		c0-2.9-0.1-5.8,0-8.8c0.1-2.5-0.7-4.7-1.8-6.8c-1.7-3-6.7-5.2-10.2-4.4c-4.6,1-8.3,4.5-8.6,8.2c-0.5,7.3-0.8,14.5-0.7,21.8
		c0,1.7,0.4,2.5,2.2,2.4c5.6-0.1,11.3-0.1,16.9,0c1.9,0,2.3-0.8,2.2-2.5C251,280.9,251.1,277.6,251.1,274.2z M152.7,274.8
		c0-3,0.1-6.1,0-9.1c-0.3-4.5-1.7-8.2-6.1-10.4c-7.3-3.6-14.9,1.7-14.8,9.1c0,6.5,0.5,13,0.3,19.5c-0.1,2,0.5,2.8,2.6,2.7
		c5.2-0.1,10.4-0.1,15.6,0c1.9,0,2.6-0.6,2.5-2.5C152.6,281.1,152.7,277.9,152.7,274.8z M191.4,197.1c-5.7,0-10.7,4.4-10.4,9.7
		c0.3,6,4.5,10,10.2,10.2c5.5,0.2,10.4-4.5,10.4-9.9C201.5,202.2,197.4,196.5,191.4,197.1z"/>
	<path class="st1" d="M191.1,97.1c10.2,11.7,20.3,23.3,30.3,35c1.3,1.5,2.5,3,3.9,4.5c1.9,2,2.7,4.3,2.7,7.3
		c-0.2,16.5-0.1,33-0.1,50c-5.8-3.4-11.2-6.7-16.6-10c-5.6-3.4-11.2-6.7-16.8-10.1c-2.1-1.3-3.8-1.1-6,0.2
		c-10.6,6.5-21.4,12.7-32,19.1c-1.7,1-1.9,0.5-1.9-1.1c0-16.8,0-33.6,0-50.4c0-2.5,1.8-4,3.2-5.6c6.9-8.2,14-16.1,20.9-24.2
		C182.9,107,186.9,102.1,191.1,97.1z M202.2,148.2c0-2.9,0.1-5.8,0-8.8c-0.2-4.5-2.6-6.8-7-6.9c-2.1,0-4.2,0.1-6.3,0
		c-5.8-0.5-8.9,2.1-8.5,8.5c0.3,5.5,0.5,11,0.5,16.5c0,1.8,1,2,2.4,1.9c5.5,0,11-0.1,16.6,0c2,0,2.5-0.8,2.4-2.6
		C202.1,154,202.2,151.1,202.2,148.2z"/>
	<path class="st1" d="M269.2,272.7c0-10,0.1-20-0.1-30.1c0-2.5,0.6-3.1,2.9-2.1c11.1,4.4,22.1,8.8,33.2,13.2
		c1.6,0.6,2.2,1.6,2.2,3.3c-0.1,15.6-0.1,31.1,0,46.7c0,1.9-0.7,2.5-2.5,2.5c-11.1-0.1-22.1-0.1-33.2,0c-2.2,0-2.6-0.9-2.6-2.8
		C269.3,293.1,269.2,282.9,269.2,272.7z"/>
	<path class="st1" d="M113.2,272.6c0,10-0.1,20,0,30c0,2.1-0.5,2.9-2.8,2.9c-10.7-0.1-21.5-0.1-32.2,0c-2,0-2.7-0.6-2.7-2.6
		c0.1-15.2,0.1-30.5,0-45.7c0-2.3,1-3.5,2.9-4.2c10.6-4.1,21.3-8,31.8-12.3c3.1-1.3,2.9,0,2.9,2.2
		C113.2,252.8,113.2,262.7,113.2,272.6z"/>
	<path class="st1" d="M186.3,99.7c-0.7-0.9-0.4-2-0.4-3c0-5.6-0.2-11.3,0.1-16.9c0.2-3.2-0.9-3.9-3.9-3.7c-3.8,0.3-7.7,0-11.6,0.1
		c-2,0-2.8-0.7-2.8-2.7c-0.3-8.6-0.4-8.6,8.3-8.6c2.4,0,4.8-0.1,7.2,0c1.7,0.1,2.2-0.6,2.1-2.2c-0.1-4.3,0-8.6-0.1-12.8
		c0-1.8,0.4-2.7,2.4-2.5c3,0.2,6.8-1.2,8.8,0.5c2,1.8,0.5,5.7,0.7,8.7c0.1,1.8,0.2,3.6,0,5.3c-0.3,2.6,0.9,3.2,3.2,3.1
		c4.1-0.2,8.1,0,12.2-0.1c1.6,0,2.1,0.5,2.2,2.1c0.5,9.2,0.5,9.1-8.6,9.2c-2.9,0-6.6-1.3-8.4,0.6c-1.7,1.8-0.5,5.4-0.5,8.2
		c-0.1,4.6,0,9.2,0,13.8c0,0.6,0.2,1.4-0.6,1.6c-0.6,0.1-0.9-0.4-1.2-0.8c-4.1-4.8-4.1-4.8-8.5,0C186.8,99.7,186.6,99.6,186.3,99.7z
		"/>
</g>
</svg>
