<?xml version="1.0" encoding="utf-8"?>
<!-- Generator: Adobe Illustrator 28.0.0, SVG Export Plug-In . SVG Version: 6.00 Build 0)  -->
<svg version="1.1" id="Capa_1" xmlns="http://www.w3.org/2000/svg" xmlns:xlink="http://www.w3.org/1999/xlink" x="0px" y="0px"
	 viewBox="0 0 244.1 244.1" style="enable-background:new 0 0 244.1 244.1;" xml:space="preserve">
<style type="text/css">
	.st0{fill:#C8B273;}
	.st1{fill:#FFFFFF;}
</style>
<circle class="st0" cx="122.1" cy="122.1" r="122.1"/>
<g>
	<path class="st1" d="M183.6,110.4c-3.2,14.9-6.4,29.9-9.6,44.8c-1.9,8.6-3.7,17.3-5.6,25.9c-1.7,7.6-8.1,12.3-17,12.6
		c-8.6,0.3-16.8-4.6-18.9-11.2c-1.7-5.3,0.3-11,5.5-14.3c7.6-4.8,15.4-4.5,23.2-0.2c1.3,0.7,2.4,1.6,4.1,2.8
		c2.9-13.7,5.8-27,8.6-40.3h-50c-2.8,13.2-5.6,25.8-8.3,38.4c-0.9,4.1-1.7,8.1-2.6,12.2c-2.5,11.1-10.9,16.6-22.2,14.5
		c-9.1-1.7-15.4-8.2-14.8-15.5c0.6-7.2,8-13.4,17-12.9c5.4,0.3,10.7,2.6,16.6,4.2c4.2-19.3,8.6-39.8,13.2-61.1L183.6,110.4
		L183.6,110.4z"/>
	<path class="st1" d="M76.2,89.1c4.2,11.7,8.1,22.8,12.1,33.9c2.3,6.4,1.1,11.3-3.9,15.8c-5.1,4.6-12.7,6.1-18.1,3.6
		c-5.6-2.7-7.4-8.9-4.2-14.9c3.3-6.2,9.3-9.2,19.7-9.5c-5.2-14.8-10.4-29.5-15.6-44.1c14.7-7.3,34.2,3.1,37.1,19.8
		C94.9,88.4,86.3,86.1,76.2,89.1L76.2,89.1z"/>
	<path class="st1" d="M149.6,48c13.1,5.2,18.4,16.3,13.5,28.3c-3-6.5-6.9-11.8-14.2-14.5c-2.5,8.4-5,16.6-7.5,24.8
		c-2.5,8.4-11.6,11.7-18.5,6.1c-2.2-1.8-4.3-5.8-3.8-8.2c0.5-2.5,4-5.9,6.5-6.3c4.4-0.5,9.1,1,14.3,1.8
		C142.8,70.5,146.2,59.4,149.6,48L149.6,48z"/>
</g>
</svg>
